# xmcd
#
# Track frame offsets:
#	150
#	9124
#	23612
#	33286
#	46137
#	62599
#	73925
#	84167
#	95860
#	109967
#	120875
#	131498
#	143377
#	153922
#	172674
#	185876
#	203388
#	218238
#	229489
#	248571
#
# Disc length: 3466
#
# Revision: 3
# Processed by: cddbd v1.5.1PL0 Copyright (c) Steve Scherf et al.
# Submitted via: CDCOPY 4.900
# Normalized: r1:TDELIM( - ),TSWAP
#
DISCID=f80d8814
DTITLE=Various Artist - Country Christmas
DYEAR=1900
DGENRE=
TTITLE0=donna fargo - Rockin' Around The Christmas Tree
TTITLE1=jeanni c. riley - Silver Bells
TTITLE2=joe stampley - Jingle Bell Rock
TTITLE3=kitty wells - Christmas Ain't Like Christmas Anymore
TTITLE4=jack greene - O Come All Ye Faithful
TTITLE5=skeeter davis - Santa Claus Is Coming To Town
TTITLE6=eddy raven - Silent Night
TTITLE7=donna fargo - Jingle Bells
TTITLE8=joe stampley - White Christmas
TTITLE9=skeeter davis - Rudolph The Red Nose Reindeer
TTITLE10=jeannie c. riley - Away In The Manger
TTITLE11=jack greene - Hark! The Herald Angels Sing
TTITLE12=lacy j. dalton - Winter Wonderland
TTITLE13=eddy raven - Have Yourself A Merry Little Chrstmas
TTITLE14=eddy raven - Please Come For Christmas
TTITLE15=jeannie c. riley - Joy To The World
TTITLE16=jack greene - O Little Town Of Bethlehem
TTITLE17=lacy j. dalton - Here Comes Santa Claus
TTITLE18=eddy raven - I'll Be HOme For Christmas
TTITLE19=kitty wells - Old Kris Kringle
EXTD=
EXTT0=
EXTT1=
EXTT2=
EXTT3=
EXTT4=
EXTT5=
EXTT6=
EXTT7=
EXTT8=
EXTT9=
EXTT10=
EXTT11=
EXTT12=
EXTT13=
EXTT14=
EXTT15=
EXTT16=
EXTT17=
EXTT18=
EXTT19=
PLAYORDER=
